<svg xmlns="http://www.w3.org/2000/svg" width="89.983" height="96.822" viewBox="0 0 89.983 96.822">
  <path id="패스_10" data-name="패스 10" d="M96.055,102.725V15.964h.029v-5H38.638c-1.485-.1-16.555-.811-25.714,7.708C8.4,22.884,6.1,28.582,6.1,35.606c0,7.56,2.438,13.608,7.249,17.973,9.421,8.551,24.58,7.445,26.031,7.318a36.817,36.817,0,0,1,6.872.62L6.869,102.71l.016.015h0l.021,5H38.612c.068,0,.174,0,.346,0,.086,0,.211,0,.321,0H96.055M69.229,78.761c-.006-.1-.006-.205-.014-.305V44.734L91.054,21.89V78.761ZM64.214,65.592a21.423,21.423,0,0,0-1.645-1.767,25.278,25.278,0,0,0-7.109-4.7l8.754-9.157Zm5-28.095V15.961l20.586,0ZM39.131,55.9l-.143.009c-.14.014-14.262,1.258-22.294-6.048C12.983,46.484,11.1,41.69,11.1,35.606c0-5.572,1.754-10.032,5.215-13.259,7.824-7.294,21.922-6.4,22.059-6.389l25.839,0V42.729L50.292,57.29A40.635,40.635,0,0,0,39.131,55.9ZM59.113,67.44a17.094,17.094,0,0,1,5.1,11.174v.148H36.684L51.75,63A21.373,21.373,0,0,1,59.113,67.44ZM31.9,83.763H64.161a18.806,18.806,0,0,1-5.39,11.906c-6.7,6.57-17.536,7.029-19.694,7.057h-25.3Zm30.345,15.5a23.738,23.738,0,0,0,6.949-15.5H91.054v18.963H57.745A25.038,25.038,0,0,0,62.249,99.263Z" transform="translate(-6.1 -10.909)" fill="#d1d1d1"/>
</svg>
